<!-- <svg xmlns="http://www.w3.org/2000/svg" viewBox="0 0 24 24" width="64" height="64">
  <path d="M20 6h-3.5L15 4H9L7.5 6H4c-1.1 0-2 .9-2 2v14c0 1.1.9 2 2 2h16c1.1 0 2-.9 2-2V8c0-1.1-.9-2-2-2zm0 16H4V8h3.5l1-1h9l1 1H20v14z" fill="#000"/>
  <path d="M7 6h10v4H7z" fill="#000"/>
  <path d="M10 14h4v2h-4z" fill="#000"/>
  <path d="M10 18h4v2h-4z" fill="#000"/>
</svg> -->


<svg xmlns="http://www.w3.org/2000/svg" viewBox="0 0 24 24" width="64" height="64">
  <path d="M7 4h14l-1.5 7H9.21L8.11 4H7z" fill="#000"/>
  <path d="M9 19c-1.1 0-2 .9-2 2s.9 2 2 2 2-.9 2-2-.9-2-2-2zm10 0c-1.1 0-2 .9-2 2s.9 2 2 2 2-.9 2-2-.9-2-2-2zM6 0H4c-1.1 0-2 .9-2 2s.9 2 2 2h1.35l.69 3.42C3.78 7.77 2 9.96 2 12.5c0 2.49 1.76 4.5 4.08 4.94c.12.47.37.86.7 1.16c.55.47 1.27.74 2.01.74h9c.74 0 1.46-.27 2.01-.74c.33-.3.58-.69.7-1.16c2.32-.44 4.08-2.45 4.08-4.94c0-2.54-1.78-4.73-4.03-5.08L15.57 0H6z" fill="#000"/>
</svg>