<!-- <svg xmlns="http://www.w3.org/2000/svg" viewBox="0 0 24 24" width="64" height="64">
  <path d="M20 6h-3.5L15 4H9L7.5 6H4c-1.1 0-2 .9-2 2v14c0 1.1.9 2 2 2h16c1.1 0 2-.9 2-2V8c0-1.1-.9-2-2-2zm0 16H4V8h3.5l1-1h9l1 1H20v14z" fill="#000"/>
  <path d="M7 6h10v4H7z" fill="#000"/>
  <path d="M10 14h4v2h-4z" fill="#000"/>
  <path d="M10 18h4v2h-4z" fill="#000"/>
</svg> -->


<svg xmlns="http://www.w3.org/2000/svg" height="24px" viewBox="0 0 24 24" width="24px" fill="#5f6368"><path d="M0 0h24v24H0z" fill="none"/><path d="M17 7l-1.41 1.41L18.17 11H8v2h10.17l-2.58 2.58L17 17l5-5zM4 5h8V3H4c-1.1 0-2 .9-2 2v14c0 1.1.9 2 2 2h8v-2H4V5z"/></svg>